# xmcd
#
# Track frame offsets:
#	150
#	11529
#	24182
#	38942
#	48352
#	66589
#	81595
#	95344
#	114598
#	127971
#	141005
#	149104
#	162409
#	184939
#
# Disc length: 3926 seconds
# Revision: 0
# Processed by: cddbd v1.5.2PL0 Copyright (c) Steve Scherf et al.
# Submitted via: dBpowerAMP V12.0
#
DISCID=c80f540e
DTITLE=Niall Toner Band - Three
DYEAR=2008
DGENRE=Country
TTITLE0=Long Story Short
TTITLE1=Walk on Water
TTITLE2=Right Place, Wrong Time, Again
TTITLE3=Slaney River Run
TTITLE4=Tell Me Why
TTITLE5=Jimmy Rodgers' Dream
TTITLE6=My Fingers
TTITLE7=Rolling Stone
TTITLE8=Sleeping Beauty
TTITLE9=Waltzing at Christmas
TTITLE10=Gas Station Rag
TTITLE11=All Over Again
TTITLE12=Nuns Island Reel (A Real Reel)
TTITLE13=DATA
EXTD=
EXTT0=
EXTT1=
EXTT2=
EXTT3=
EXTT4=
EXTT5=
EXTT6=
EXTT7=
EXTT8=
EXTT9=
EXTT10=
EXTT11=
EXTT12=
EXTT13=
PLAYORDER=
